<?xml version="1.0" encoding="utf-8"?>
<!-- Generator: Adobe Illustrator 15.1.0, SVG Export Plug-In . SVG Version: 6.00 Build 0)  -->
<!DOCTYPE svg PUBLIC "-//W3C//DTD SVG 1.1//EN" "http://www.w3.org/Graphics/SVG/1.1/DTD/svg11.dtd">
<svg version="1.1" id="logo" xmlns="http://www.w3.org/2000/svg" xmlns:xlink="http://www.w3.org/1999/xlink" x="0px" y="0px"
	 width="566.929px" height="425.197px" viewBox="0 0 566.929 425.197" enable-background="new 0 0 566.929 425.197"
	 xml:space="preserve">
<g>
	<g>
		<g>
			<g>
				<g>
					<rect x="53.452" y="44.984" opacity="0" fill="none" width="58.394" height="58.393"/>
				</g>
			</g>
		</g>
	</g>
	<path fill="#A0C4E6" d="M86.192,59.585c-1.14-0.275-2.32-0.428-3.543-0.428s-2.406,0.152-3.543,0.428v3.966h7.086V59.585z"/>
	<rect x="79.106" y="70.638" fill="#EF3E42" width="7.086" height="7.087"/>
	<rect x="79.106" y="77.725" fill="#9ACD6E" width="7.086" height="7.086"/>
	<path fill="#429ED6" d="M79.106,88.777c1.137,0.275,2.32,0.428,3.543,0.428s2.403-0.152,3.543-0.428v-3.967h-7.086V88.777z"/>
	<rect x="79.106" y="63.551" fill="#CAE3B2" width="7.086" height="7.087"/>
	<rect x="72.02" y="70.638" fill="#CAE3B2" width="7.087" height="7.087"/>
	<rect x="72.02" y="77.725" fill="#7AC143" width="7.087" height="7.086"/>
	<path fill="#007BC6" d="M72.02,84.811c1.919,1.919,4.36,3.307,7.087,3.967v-3.967H72.02z"/>
	<rect x="72.02" y="63.551" fill="#9ACD6E" width="7.087" height="7.087"/>
	<path fill="#429ED6" d="M79.106,59.585c-2.727,0.66-5.168,2.047-7.087,3.966h7.087V59.585z"/>
	<path fill="#007BC6" d="M72.02,84.811v-7.086l-3.967-0.001C68.714,80.449,70.1,82.893,72.02,84.811z"/>
	<path fill="#429ED6" d="M72.02,63.551c-1.92,1.919-3.306,4.361-3.967,7.087h3.967V63.551z"/>
	<rect x="86.192" y="70.638" fill="#9ACD6E" width="7.087" height="7.087"/>
	<rect x="86.192" y="77.725" fill="#7AC143" width="7.087" height="7.086"/>
	<path fill="#007BC6" d="M93.279,84.811h-7.087v3.967C88.918,88.117,91.361,86.731,93.279,84.811z"/>
	<rect x="86.192" y="63.551" fill="#7AC143" width="7.087" height="7.087"/>
	<path fill="#007BC6" d="M86.192,59.585v3.966h7.087C91.361,61.632,88.918,60.244,86.192,59.585z"/>
	<path fill="#007BC6" d="M93.279,84.811c1.919-1.918,3.305-4.361,3.966-7.087l-3.966,0.001V84.811z"/>
	<path fill="#007BC6" d="M93.279,63.551v7.087h3.966C96.584,67.912,95.199,65.47,93.279,63.551z"/>
	<path fill="#A0C4E6" d="M68.053,70.638c-0.274,1.14-0.427,2.32-0.427,3.543s0.152,2.405,0.427,3.543l3.967,0.001v-7.087H68.053z"/>
	<path fill="#429ED6" d="M97.245,77.724c0.275-1.138,0.428-2.32,0.428-3.543s-0.152-2.403-0.428-3.543h-3.966v7.087L97.245,77.724z"
		/>
	<g>
		<g>
			<path fill="#474747" d="M99.685,81.507h1.022c0.208,0,0.392,0.024,0.524,0.077c0.431,0.127,0.642,0.453,0.642,0.828
				c0,0.531-0.401,0.806-0.774,0.895v0.016c0.224,0.112,0.572,0.766,0.966,1.488h-0.769c-0.431-0.785-0.688-1.305-0.83-1.316h-0.114
				v1.316h-0.667V81.507z M100.514,82.967c0.343,0,0.645-0.136,0.645-0.477c0-0.203-0.087-0.356-0.267-0.402
				c-0.099-0.043-0.208-0.051-0.362-0.051h-0.178v0.93H100.514z"/>
		</g>
	</g>
	<path fill="#474747" d="M103.796,83.205c0,1.689-1.371,3.061-3.062,3.061c-1.691,0-3.062-1.371-3.062-3.061
		c0-1.691,1.37-3.062,3.062-3.062C102.425,80.143,103.796,81.514,103.796,83.205z M100.733,80.787c-1.334,0-2.417,1.083-2.417,2.418
		c0,1.334,1.083,2.416,2.417,2.416c1.335,0,2.418-1.082,2.418-2.416C103.151,81.87,102.068,80.787,100.733,80.787z"/>
</g>
</svg>
